<svg xmlns="http://www.w3.org/2000/svg" xmlns:xlink="http://www.w3.org/1999/xlink" width="500" zoomAndPan="magnify" viewBox="0 0 375 374.999991" height="500" preserveAspectRatio="xMidYMid meet" version="1.0"><defs><clipPath id="9fea30c51a"><path d="M 69.078125 49.699219 L 305.910156 49.699219 L 305.910156 325.390625 L 69.078125 325.390625 Z M 69.078125 49.699219 " clip-rule="nonzero"/></clipPath><clipPath id="0e2a5ecf90"><path d="M 187.496094 325.289062 L 69.078125 256.390625 L 69.078125 118.597656 L 187.496094 49.699219 L 305.910156 118.597656 L 305.910156 256.390625 Z M 187.496094 325.289062 " clip-rule="nonzero"/></clipPath><clipPath id="a134836f58"><path d="M 0.078125 0.699219 L 236.910156 0.699219 L 236.910156 276.390625 L 0.078125 276.390625 Z M 0.078125 0.699219 " clip-rule="nonzero"/></clipPath><clipPath id="2ca1034968"><path d="M 118.496094 276.289062 L 0.078125 207.390625 L 0.078125 69.597656 L 118.496094 0.699219 L 236.910156 69.597656 L 236.910156 207.390625 Z M 118.496094 276.289062 " clip-rule="nonzero"/></clipPath><clipPath id="9bc4cce0d8"><rect x="0" width="237" y="0" height="277"/></clipPath><clipPath id="cef8e9112e"><path d="M 177.421875 263.761719 L 197.222656 263.761719 L 197.222656 283.558594 L 177.421875 283.558594 Z M 177.421875 263.761719 " clip-rule="nonzero"/></clipPath><clipPath id="24728f81ef"><path d="M 187.320312 263.761719 C 181.855469 263.761719 177.421875 268.191406 177.421875 273.660156 C 177.421875 279.128906 181.855469 283.558594 187.320312 283.558594 C 192.789062 283.558594 197.222656 279.128906 197.222656 273.660156 C 197.222656 268.191406 192.789062 263.761719 187.320312 263.761719 Z M 187.320312 263.761719 " clip-rule="nonzero"/></clipPath><clipPath id="13a59bee6c"><path d="M 0.421875 0.761719 L 20.222656 0.761719 L 20.222656 20.558594 L 0.421875 20.558594 Z M 0.421875 0.761719 " clip-rule="nonzero"/></clipPath><clipPath id="8b559378d5"><path d="M 10.320312 0.761719 C 4.855469 0.761719 0.421875 5.191406 0.421875 10.660156 C 0.421875 16.128906 4.855469 20.558594 10.320312 20.558594 C 15.789062 20.558594 20.222656 16.128906 20.222656 10.660156 C 20.222656 5.191406 15.789062 0.761719 10.320312 0.761719 Z M 10.320312 0.761719 " clip-rule="nonzero"/></clipPath><clipPath id="79982ec410"><rect x="0" width="21" y="0" height="21"/></clipPath></defs><g clip-path="url(#9fea30c51a)"><g clip-path="url(#0e2a5ecf90)"><g transform="matrix(1, 0, 0, 1, 69, 49)"><g clip-path="url(#9bc4cce0d8)"><g clip-path="url(#a134836f58)"><g clip-path="url(#2ca1034968)"><path fill="#303030" d="M 236.910156 0.699219 L 236.910156 276.390625 L 0.078125 276.390625 L 0.078125 0.699219 Z M 236.910156 0.699219 " fill-opacity="1" fill-rule="nonzero"/></g></g></g></g></g></g><path stroke-linecap="round" transform="matrix(0.649519, 0.375, -0.375, 0.649519, 120.13389, 224.859492)" fill="none" stroke-linejoin="miter" d="M 12.49991 12.497102 L 110.625286 12.496888 " stroke="#848484" stroke-width="25" stroke-opacity="1" stroke-miterlimit="4"/><path stroke-linecap="round" transform="matrix(0.000000001309, 0.75, -0.75, 0.000000001309, 129.178882, 193.98195)" fill="none" stroke-linejoin="miter" d="M 12.498025 12.498927 L 55.815736 12.498927 " stroke="#848484" stroke-width="25" stroke-opacity="1" stroke-miterlimit="4"/><path fill="#848484" d="M 234.875 131.859375 C 234.730469 124.164062 234.496094 118.71875 234.179688 117.902344 C 232.945312 114.734375 197.867188 115.707031 196.652344 117.902344 C 196.335938 118.476562 196.109375 123.984375 195.96875 131.859375 Z M 234.875 131.859375 " fill-opacity="1" fill-rule="nonzero"/><path fill="#848484" d="M 238.496094 124.449219 C 242.59375 127.667969 239.902344 192.363281 239.308594 199.117188 C 238.464844 208.609375 234.679688 216.269531 225.429688 216.292969 C 192.769531 216.367188 117.207031 208.675781 114.394531 206.160156 C 110.835938 202.980469 110.179688 126.992188 114.203125 124.746094 C 118.222656 122.496094 234.398438 121.230469 238.496094 124.449219 Z M 238.496094 124.449219 " fill-opacity="1" fill-rule="nonzero"/><path fill="#ff5b04" d="M 231.597656 133.683594 C 235.6875 136.914062 235.429688 211.003906 231.597656 215.101562 C 227.761719 219.199219 110.851562 218.292969 107.300781 215.101562 C 103.75 211.914062 103.273438 135.921875 107.300781 133.683594 C 111.328125 131.445312 227.507812 130.457031 231.597656 133.683594 Z M 231.597656 133.683594 " fill-opacity="1" fill-rule="nonzero"/><path fill="#ff5b04" d="M 229.457031 136.988281 C 229.308594 129.296875 229.078125 123.847656 228.757812 123.03125 C 227.523438 119.863281 192.445312 120.835938 191.230469 123.03125 C 190.914062 123.605469 190.6875 129.113281 190.550781 136.988281 Z M 229.457031 136.988281 " fill-opacity="1" fill-rule="nonzero"/><path fill="#85c0c8" d="M 262.320312 200.578125 C 262.671875 198.523438 262.859375 196.472656 262.859375 194.460938 C 262.859375 173.328125 241.875 163.867188 225.285156 167.691406 C 212.4375 170.652344 203.996094 180.21875 203.996094 180.21875 C 203.996094 180.21875 197.433594 176.992188 189.808594 178.789062 C 174.789062 182.324219 171.800781 194.074219 171.800781 194.074219 C 171.800781 194.074219 168.007812 193.386719 164.484375 194.335938 C 153.761719 197.230469 144.066406 204.546875 146.851562 218.160156 C 149.332031 230.292969 159.015625 232.933594 169.746094 235.792969 C 183.664062 239.507812 252.316406 240.425781 261.324219 238.09375 C 274.445312 234.6875 282.976562 226.203125 280.875 213.828125 C 279.089844 203.332031 270.914062 199.613281 262.320312 200.578125 Z M 262.320312 200.578125 " fill-opacity="1" fill-rule="nonzero"/><path fill="#d6eefd" d="M 257.988281 202.742188 C 258.34375 200.691406 258.527344 198.636719 258.527344 196.625 C 258.527344 175.492188 237.394531 165.421875 220.953125 169.855469 C 212.445312 172.148438 205.523438 177.359375 200.851562 184.195312 C 196.632812 180.757812 190.636719 179.5625 185.476562 180.953125 C 177.914062 182.992188 172.617188 189.195312 171.121094 196.617188 C 167.527344 195.621094 163.679688 195.554688 160.152344 196.503906 C 149.429688 199.394531 139.734375 206.714844 142.519531 220.324219 C 145 232.457031 154.683594 235.097656 165.414062 237.960938 C 179.335938 241.671875 250.949219 240.296875 259.953125 237.960938 C 273.078125 234.558594 278.644531 228.371094 276.542969 215.996094 C 274.757812 205.5 266.585938 201.78125 257.988281 202.742188 Z M 257.988281 202.742188 " fill-opacity="1" fill-rule="nonzero"/><path stroke-linecap="round" transform="matrix(-0.649519, 0.375, -0.375, -0.649519, 264.229881, 241.097475)" fill="none" stroke-linejoin="miter" d="M 12.50047 12.503235 L 110.621336 12.500845 " stroke="#848484" stroke-width="25" stroke-opacity="1" stroke-miterlimit="4"/><g clip-path="url(#cef8e9112e)"><g clip-path="url(#24728f81ef)"><g transform="matrix(1, 0, 0, 1, 177, 263)"><g clip-path="url(#79982ec410)"><g clip-path="url(#13a59bee6c)"><g clip-path="url(#8b559378d5)"><path fill="#ffffff" d="M 0.421875 0.761719 L 20.222656 0.761719 L 20.222656 20.558594 L 0.421875 20.558594 Z M 0.421875 0.761719 " fill-opacity="1" fill-rule="nonzero"/></g></g></g></g></g></g><path stroke-linecap="round" transform="matrix(-0.014416, 0.749861, -0.749861, -0.014416, 262.020369, 194.161026)" fill="none" stroke-linejoin="miter" d="M 12.501786 12.497501 L 55.83272 12.497956 " stroke="#848484" stroke-width="25" stroke-opacity="1" stroke-miterlimit="4"/></svg>